<svg xmlns="http://www.w3.org/2000/svg" viewBox="0 0 238.12 53.62"><defs><style>.cls-1{fill:#327230;}.cls-2{fill:#fff;}.cls-3{isolation:isolate;}</style></defs><title>contacto</title><g id="Capa_2" data-name="Capa 2"><g id="Capa_1-2" data-name="Capa 1"><rect id="Rectángulo_3" data-name="Rectángulo 3" class="cls-1" width="238.12" height="53.62" rx="26.81"/><g id="Grupo_3" data-name="Grupo 3"><path id="Trazado_38" data-name="Trazado 38" class="cls-2" d="M31.29,43.64l.57-1.79c.74-2.19,1.5-4.37,2.19-6.57a2.1,2.1,0,0,0-.11-1.42,17.06,17.06,0,0,1,6.92-23.13A16.73,16.73,0,0,1,46.1,8.92,17.08,17.08,0,0,1,65.76,23c.06.34.1.68.14,1A17,17,0,0,1,50.74,42.68a18.84,18.84,0,0,1-2.81.06A16,16,0,0,1,41.44,41a1.74,1.74,0,0,0-1.51-.12c-2.55.85-5.11,1.65-7.66,2.47Zm4.35-4.29c1.7-.54,3.19-1,4.66-1.49a1.61,1.61,0,0,1,1.43.15,13.93,13.93,0,0,0,9.14,1.83,14.24,14.24,0,0,0-.74-28.31A13.61,13.61,0,0,0,36.76,18.4c-3,5-2.8,10.06.2,15A1.63,1.63,0,0,1,37.12,35C36.62,36.36,36.18,37.76,35.64,39.35Z"/><path id="Trazado_39" data-name="Trazado 39" class="cls-1" d="M35.64,39.35c.54-1.6,1-3,1.48-4.37A1.66,1.66,0,0,0,37,33.41c-3-4.95-3.18-10-.2-15a13.62,13.62,0,0,1,13.37-6.87,14.24,14.24,0,0,1,.74,28.31A13.9,13.9,0,0,1,41.73,38a1.63,1.63,0,0,0-1.44-.15C38.83,38.36,37.34,38.81,35.64,39.35ZM40.5,22a12.93,12.93,0,0,0,.73,2.44,17.59,17.59,0,0,0,7.44,7.8,11,11,0,0,0,5,1.54,3.79,3.79,0,0,0,3.91-3.22,1,1,0,0,0-.65-1.3c-.6-.25-1.16-.57-1.74-.84-2-1-1.92-1-3.1.7a1.47,1.47,0,0,1-.1.13,1.11,1.11,0,0,1-1.5.43l0,0a11,11,0,0,1-4.75-3.86c-1.1-1.55-.88-1.43.1-2.49a1.48,1.48,0,0,0,.28-1.89,18.08,18.08,0,0,1-1-2.45,1.29,1.29,0,0,0-1.55-1,.5.5,0,0,0-.13,0,3.4,3.4,0,0,0-1.53.76A4.75,4.75,0,0,0,40.5,22Z"/><path id="Trazado_40" data-name="Trazado 40" class="cls-2" d="M40.5,22a4.76,4.76,0,0,1,1.38-3.24A3.44,3.44,0,0,1,43.42,18a1.31,1.31,0,0,1,1.64.84.93.93,0,0,1,0,.13,18.08,18.08,0,0,0,1,2.45,1.49,1.49,0,0,1-.29,1.89c-1,1.06-1.2.94-.1,2.5a11.1,11.1,0,0,0,4.75,3.85A1.09,1.09,0,0,0,52,29.25l0,0,.1-.12c1.19-1.69,1.06-1.69,3.1-.71.59.28,1.15.59,1.74.84a1.06,1.06,0,0,1,.66,1.3,3.78,3.78,0,0,1-3.91,3.22,11.08,11.08,0,0,1-5-1.54,17.57,17.57,0,0,1-7.43-7.8A12.71,12.71,0,0,1,40.5,22Z"/></g><g id="contacto" class="cls-3"><g class="cls-3"><path class="cls-2" d="M89.34,36.55q-7.4,0-7.4-8.11a8.67,8.67,0,0,1,2-6.17,7.54,7.54,0,0,1,5.76-2.13,11,11,0,0,1,4.93,1.08l-1.28,3.34c-.68-.27-1.31-.5-1.89-.67a6,6,0,0,0-1.76-.26q-3.37,0-3.37,4.78t3.37,4.65A7.46,7.46,0,0,0,92,32.72a8.48,8.48,0,0,0,2.12-1v3.7A7,7,0,0,1,92,36.3,11.88,11.88,0,0,1,89.34,36.55Z"/><path class="cls-2" d="M112.21,28.33a8.49,8.49,0,0,1-2,6,7.38,7.38,0,0,1-5.68,2.18,8,8,0,0,1-4-1,6.7,6.7,0,0,1-2.68-2.87,9.69,9.69,0,0,1-.93-4.36,8.48,8.48,0,0,1,2-6,7.45,7.45,0,0,1,5.69-2.15,8,8,0,0,1,4,1A6.54,6.54,0,0,1,111.27,24,9.61,9.61,0,0,1,112.21,28.33Zm-10.95,0a6.68,6.68,0,0,0,.77,3.55,2.76,2.76,0,0,0,2.51,1.2A2.71,2.71,0,0,0,107,31.89a6.8,6.8,0,0,0,.76-3.56A6.53,6.53,0,0,0,107,24.8a3.26,3.26,0,0,0-5,0A6.56,6.56,0,0,0,101.26,28.33Z"/><path class="cls-2" d="M130.39,36.27h-4.32V27a4.51,4.51,0,0,0-.61-2.57,2.22,2.22,0,0,0-1.94-.85,2.91,2.91,0,0,0-2.62,1.21,7.47,7.47,0,0,0-.81,4v7.45h-4.32V20.44h3.3l.58,2h.24a4.65,4.65,0,0,1,2-1.73,6.84,6.84,0,0,1,2.89-.59,5.53,5.53,0,0,1,4.19,1.5A6,6,0,0,1,130.39,26Z"/><path class="cls-2" d="M141.5,33.11a9.34,9.34,0,0,0,2.72-.49v3.21a9.7,9.7,0,0,1-4,.72,4.84,4.84,0,0,1-3.78-1.31,5.68,5.68,0,0,1-1.18-3.93V23.68h-2.07V21.86l2.38-1.45,1.25-3.34h2.76v3.37h4.43v3.24h-4.43v7.63a1.66,1.66,0,0,0,.52,1.36A2,2,0,0,0,141.5,33.11Z"/><path class="cls-2" d="M157.48,36.27l-.84-2.15h-.11a6.41,6.41,0,0,1-2.25,1.9,7.16,7.16,0,0,1-3,.53,4.87,4.87,0,0,1-3.59-1.3,5,5,0,0,1-1.31-3.71,4.18,4.18,0,0,1,1.77-3.72,10.3,10.3,0,0,1,5.31-1.32l2.75-.08v-.7a2.16,2.16,0,0,0-2.46-2.41,11.26,11.26,0,0,0-4.46,1.15l-1.43-2.92a12.9,12.9,0,0,1,6.06-1.43,7.57,7.57,0,0,1,4.88,1.39,5.11,5.11,0,0,1,1.7,4.22V36.27Zm-1.28-7.33-1.67,0a5.39,5.39,0,0,0-2.8.68,2.13,2.13,0,0,0-.92,1.9c0,1.22.69,1.83,2.09,1.83a3.31,3.31,0,0,0,2.4-.87,3,3,0,0,0,.9-2.29Z"/><path class="cls-2" d="M171.37,36.55q-7.4,0-7.39-8.11a8.66,8.66,0,0,1,2-6.17,7.54,7.54,0,0,1,5.76-2.13,11,11,0,0,1,4.93,1.08l-1.28,3.34c-.68-.27-1.31-.5-1.9-.67a5.89,5.89,0,0,0-1.75-.26q-3.37,0-3.37,4.78t3.37,4.65a7.46,7.46,0,0,0,2.31-.34,8.31,8.31,0,0,0,2.12-1v3.7a7,7,0,0,1-2.12.92A11.88,11.88,0,0,1,171.37,36.55Z"/><path class="cls-2" d="M186.52,33.11a9.4,9.4,0,0,0,2.72-.49v3.21a9.75,9.75,0,0,1-4,.72,4.82,4.82,0,0,1-3.77-1.31,5.68,5.68,0,0,1-1.18-3.93V23.68h-2.07V21.86l2.38-1.45,1.24-3.34h2.76v3.37h4.44v3.24h-4.44v7.63a1.69,1.69,0,0,0,.52,1.36A2,2,0,0,0,186.52,33.11Z"/><path class="cls-2" d="M206.82,28.33a8.49,8.49,0,0,1-2,6,7.35,7.35,0,0,1-5.67,2.18,8.05,8.05,0,0,1-4-1,6.68,6.68,0,0,1-2.67-2.87,9.69,9.69,0,0,1-.94-4.36,8.48,8.48,0,0,1,2-6,7.45,7.45,0,0,1,5.69-2.15,8,8,0,0,1,4,1A6.6,6.6,0,0,1,205.89,24,9.61,9.61,0,0,1,206.82,28.33Zm-10.94,0a6.68,6.68,0,0,0,.77,3.55,2.75,2.75,0,0,0,2.51,1.2,2.72,2.72,0,0,0,2.49-1.19,6.8,6.8,0,0,0,.76-3.56,6.53,6.53,0,0,0-.77-3.53,3.26,3.26,0,0,0-5,0A6.56,6.56,0,0,0,195.88,28.33Z"/></g></g></g></g></svg>