<?xml version="1.0" encoding="utf-8"?>
<!-- Generator: Adobe Illustrator 23.0.3, SVG Export Plug-In . SVG Version: 6.00 Build 0)  -->
<svg version="1.1" id="Capa_1" xmlns="http://www.w3.org/2000/svg" xmlns:xlink="http://www.w3.org/1999/xlink" x="0px" y="0px"
	 viewBox="0 0 90 90" style="enable-background:new 0 0 90 90;" xml:space="preserve">
<style type="text/css">
	.st0{fill:#C5CF38;}
	.st1{fill:none;}
</style>
<g id="XMLID_65_">
	<g id="XMLID_79_">
		<g id="lG4GUb_3_">
			<g id="XMLID_86_">
				<path id="XMLID_87_" class="st0" d="M81.7,4.3L81.7,4.3c-1.1-0.5-2.2-0.9-3.4-1c-8.6-1-17.1-2.2-25.7-3.2C51.8,0,51,0,50.3,0.1
					l0,0c-2.2,0.3-4,1.1-5.1,3.1c-0.3,0.6-0.6,1.3-0.8,1.9c0.7,0.7,1.1,1.8,1.4,3c0.1,0.2,0.1,0.4,0.1,0.7c0.3,1.9,0.7,3.7,1,5.6
					c0.2-1.8,0.4-3.7,0.7-5.4c11.3,1.4,22.5,2.8,33.8,4.2c-2.5,20.1-5.1,40.2-7.6,60.4C68,73,62.4,72.3,56.7,71.5
					c0.1,1,0.4,1.9,0.5,2.9c1.6,0.6,2.6,2.3,2.4,4c-0.2,1.6-1.3,2.8-2.8,3.1c-0.2,0.4-0.6,0.8-1,1.3c-0.8,0.8-1.7,1.4-2.7,1.9
					c5.1,0.7,10.2,1.3,15.3,1.9c1.6,0.2,3.3-0.1,4.8-0.9c2.3-1.3,3.3-3.4,3.7-5.9c2.8-22.6,5.7-45.2,8.6-67.8c0-0.2,0.1-0.5,0.1-0.7
					C85.7,8.2,84.5,5.8,81.7,4.3z M70.7,7.1c-0.1,0.7-0.4,1-1.2,0.8c-1.6-0.2-3.1-0.4-4.6-0.6c-1.6-0.2-3.1-0.4-4.6-0.6
					c-0.7-0.1-1-0.4-0.9-1.1c0.1-0.7,0.4-0.9,1.1-0.8c3.1,0.4,6.2,0.8,9.2,1.2C70.5,6.2,70.8,6.5,70.7,7.1z"/>
			</g>
		</g>
		<g id="XMLID_80_">
			<path id="XMLID_81_" class="st0" d="M64.3,39.4L62.9,39l1.2-9.4c2.2,0.4,4,1.4,5.4,3.1l3.4-2.6c-2.1-2.5-4.5-3.9-7.8-4.5l0.5-3.9
				l-3.6-0.4l-0.5,3.9c-5.6-0.1-9.3,2.9-10,7.8c-0.3,2.5,0.2,4.5,1.6,6.2c1.1,1.3,3.1,2.6,5.5,3.2l1.1,0.3l-1.2,9.8
				c-2-0.4-3.8-1-5.3-2.3c-0.5-0.4-1-1-1.5-1.6l-2.5,1.9c0.1,0.8,0.3,1.6,0.4,2.5c1.3,1.3,2.8,2.2,4.5,2.8c1,0.4,2.2,0.7,3.4,0.9
				l-0.6,4.6l3.6,0.4l0.6-4.8c5.7,0.2,9.8-2.6,10.5-7.8c0.3-2.6-0.2-5-1.7-6.6C68.7,41.1,67.1,40.2,64.3,39.4z M60.2,38.4
				c-1.3-0.4-2.5-1-3.4-1.9c-0.7-0.8-1-1.9-0.8-3c0.3-2.5,2.2-4.2,5.3-4.2L60.2,38.4z M66.9,48.7c-0.4,2.7-2.5,4.1-5.7,4l1.2-9.2
				l0.3,0.1c1.3,0.3,2.5,0.7,3.4,1.8C66.8,46.1,67,47.3,66.9,48.7z"/>
		</g>
	</g>
	<g id="XMLID_66_">
		<g id="lG4GUb_2_">
			<g id="XMLID_72_">
				<path id="XMLID_73_" class="st0" d="M57.6,76.2c-0.1-0.6-0.2-1.2-0.3-1.7c-0.1-1-0.4-1.9-0.5-2.9C55.9,66.3,55,61,54.1,55.7
					l-1-5.6c-2.1-11.9-4.2-23.7-6.3-35.6c-0.3-1.9-0.7-3.7-1-5.6c-0.1-0.2-0.1-0.4-0.1-0.7C45.4,7.1,45,6,44.3,5.2
					c-1-1.3-2.4-2.2-4.3-2.5l0,0c-1.2-0.2-2.4-0.1-3.6,0c-8.5,1.5-17,3-25.6,4.5C10.1,7.4,9.3,7.6,8.7,8l0,0c-1.9,1-3.5,2.3-4,4.5
					c-0.3,1.3-0.3,2.8-0.1,4.1C8.5,38.7,12.4,61,16.3,83.2c0.1,0.2,0.1,0.4,0.1,0.7c1,4.6,4.5,6.6,8.6,6c8.9-1.4,17.7-3.1,26.6-4.6
					c0.5-0.1,1-0.2,1.6-0.4c1-0.4,1.9-1,2.7-1.9c0.4-0.4,0.7-0.8,1-1.3C57.9,80,58,78.2,57.6,76.2z M19.9,9.4c3.1-0.5,6.1-1,9.2-1.6
					c0.7-0.1,1,0.1,1.2,0.7c0.1,0.7-0.1,1-0.9,1.2c-1.6,0.2-3.1,0.5-4.6,0.8c-1.6,0.3-3.1,0.5-4.6,0.8c-0.7,0.1-1-0.1-1.1-0.8
					C18.9,9.9,19.2,9.6,19.9,9.4z M40.2,82.9c-0.5,0.7-1.4,1.3-2.5,1.5c-2.1,0.4-4-1-4.3-3.1c-0.2-1.6,0.5-3.1,1.9-3.9
					c0.4-0.2,0.7-0.4,1.2-0.4c2.1-0.4,4,1,4.4,3.1C41.1,81.1,40.8,82,40.2,82.9z M35.3,74.4c-5.4,1-10.7,1.9-16.1,2.8
					c-3.5-20-7-40-10.5-59.9c11.2-1.9,22.4-4,33.5-5.9c0.2,1.1,0.4,2.2,0.6,3.3c0.7,4.4,1.6,8.7,2.3,13.1c1.3,7.5,2.6,15.1,4,22.7
					c0.1,0.8,0.3,1.6,0.4,2.5c1,6,2.1,12.1,3.2,18.1c0,0.1,0,0.1,0.1,0.3C47,72.3,41.2,73.3,35.3,74.4z"/>
			</g>
		</g>
		<g id="XMLID_67_">
			<path id="XMLID_68_" class="st0" d="M35.7,58.9l0.8,4.8L33,64.4l-0.8-4.6c-4.1,0.5-7.3-0.1-10.5-2.3l2.5-3.6
				c2.5,1.7,4.8,2,7.6,1.7L30.2,46l-1.1,0.1c-2.5,0.1-4.8-0.5-6.2-1.4c-1.8-1.2-2.9-3-3.3-5.4c-0.9-4.9,1.8-8.9,7.2-10.4l-0.7-3.9
				l3.5-0.6l0.7,3.8c3.4-0.4,6.1,0.2,8.8,2l-2.5,3.4c-1.8-1.2-3.8-1.6-6-1.3l1.6,9.3l1.5-0.1c2.9-0.1,4.6,0.4,6.1,1.3
				c1.9,1.2,3.1,3.2,3.6,5.8C44.4,53.6,41.2,57.4,35.7,58.9z M27.9,32.6c-3,0.8-4.2,3-3.8,5.5c0.2,1.1,0.7,2,1.6,2.6
				c1,0.7,2.4,0.9,3.7,0.8L27.9,32.6z M37.1,46.4c-1.2-0.7-2.5-0.7-3.8-0.7H33l1.6,9.1c3.1-0.9,4.8-2.8,4.2-5.5
				C38.6,48.1,38,47,37.1,46.4z"/>
		</g>
	</g>
</g>
<rect class="st1" width="90" height="90"/>
</svg>
