<?xml version="1.0" encoding="utf-8"?>
<!-- Generator: Adobe Illustrator 23.0.3, SVG Export Plug-In . SVG Version: 6.00 Build 0)  -->
<svg version="1.1" id="Capa_1" xmlns="http://www.w3.org/2000/svg" xmlns:xlink="http://www.w3.org/1999/xlink" x="0px" y="0px"
	 viewBox="0 0 90 90" style="enable-background:new 0 0 90 90;" xml:space="preserve">
<style type="text/css">
	.st0{fill:#00657E;}
</style>
<g id="XMLID_66_">
	<path id="XMLID_76_" class="st0" d="M45,5.5c21.8,0,39.5,17.7,39.5,39.5S66.8,84.5,45,84.5S5.5,66.8,5.5,45S23.2,5.5,45,5.5 M45,0
		C20.2,0,0,20.2,0,45s20.2,45,45,45s45-20.2,45-45S69.8,0,45,0L45,0z"/>
	<g id="XMLID_67_">
		<path id="XMLID_74_" class="st0" d="M13,50.7v-7.9h16.7v7.8L13,50.7L13,50.7z"/>
		<path id="XMLID_68_" class="st0" d="M42.1,44.2c-4,0-7.7-2.3-7.7-7v-4.8c0-4.8,3.6-7,7.7-7s7.7,2.3,7.7,7v4.8
			C49.8,42,46.1,44.2,42.1,44.2z M43.9,32.5c0-1.4-0.8-2-1.8-2c-1,0-1.8,0.5-1.8,2v4.4c0,1.4,0.8,2,1.8,2c1,0,1.8-0.5,1.8-2V32.5z
			 M48.6,61.7h-6.4l17.3-36.2h6.4L48.6,61.7z M65.8,62c-4,0-7.7-2.3-7.7-7v-4.8c0-4.8,3.6-7,7.7-7c4,0,7.7,2.3,7.7,7V55
			C73.5,59.8,69.8,62,65.8,62z M67.6,50.4c0-1.4-0.8-2-1.8-2c-1,0-1.8,0.5-1.8,2v4.4c0,1.4,0.8,2,1.8,2c1,0,1.8-0.5,1.8-2V50.4z"/>
	</g>
</g>
</svg>
