<?xml version="1.0" encoding="utf-8"?>
<!-- Generator: Adobe Illustrator 23.0.3, SVG Export Plug-In . SVG Version: 6.00 Build 0)  -->
<svg version="1.1" id="Capa_1" xmlns="http://www.w3.org/2000/svg" xmlns:xlink="http://www.w3.org/1999/xlink" x="0px" y="0px"
	 viewBox="0 0 90 90" style="enable-background:new 0 0 90 90;" xml:space="preserve">
<style type="text/css">
	.st0{fill:#00657E;}
	.st1{fill:none;}
</style>
<g id="XMLID_42_">
	<path id="XMLID_44_" class="st0" d="M67.5,7.5c-0.2-3.4-1.8-5.7-5.1-6.9l0,0C61.2,0.2,59.9,0,58.7,0H30.8c-0.8,0-1.7,0.2-2.5,0.4
		l0,0c-2.2,0.6-4.1,1.8-5.1,4c-0.5,1.4-0.8,2.9-0.8,4.4c-0.1,24.1,0,48.3,0,72.5c0,0.2,0,0.5,0,0.8c0.2,5.1,3.5,7.8,8,7.9
		C32.7,90,34.8,90,37,90c2.2,0,4.4,0,6.7,0c0.5,0,1.1,0,1.6,0c2.2,0,4.4,0,6.7,0c2.5,0,5.1,0,7.6,0c1.8,0,3.4-0.6,4.9-1.6
		c2.3-1.6,3.1-4.1,3.1-6.7V8.3C67.5,8,67.5,7.7,67.5,7.5z M40,4.1c3.4,0,6.7,0,10,0c0.8,0,1.1,0.3,1.1,1c0,0.8-0.4,1.1-1.1,1.1
		c-1.7-0.1-3.4,0-5,0c-1.7,0-3.3,0-5,0c-0.8,0-1.1-0.4-1.1-1.1C38.9,4.4,39.3,4.1,40,4.1z M45.2,86.4c-0.1,0-0.2,0-0.2,0
		c-0.5,0-0.9-0.1-1.4-0.2C42,85.6,41,84.1,41,82.3c0-1.7,1.1-3.2,2.7-3.8c0.5-0.2,0.9-0.2,1.4-0.2c0.1,0,0.2,0,0.2,0
		c2.1,0.2,3.8,1.9,3.8,4.1C49.1,84.6,47.4,86.3,45.2,86.4z M45.2,75.4h-1.6v-8h1.6V75.4z M63.3,75.4H51.9c0-11.1,0-22.1,0-33.2v-0.7
		c0.1,0,0.2-0.1,0.2-0.1c0.4,0.7,0.8,1.4,1.1,2.1c1.1,2.4,1.2,4.9,1.3,7.4c0,2.9-0.4,5.8-1,8.7c-0.2,0.8-0.1,1.5,0.5,2.1
		c0.6,0.7,1.4,0.9,2.2,0.7c1-0.2,1.5-1,1.7-1.9c0.3-1.5,0.5-3.1,0.7-4.7c0.5-4.3,0.5-8.6-0.8-12.7c-0.8-2.5-2.1-4.7-4.1-6.4
		c-0.8-0.7-1.8-1-2.8-1c-3.8,0-7.7-0.2-11.4,0.1c-1.8,0.1-2.5-0.7-3.2-2c-0.2-0.2-0.2-0.2-0.2-0.4c-1.2-2.5-1.5-5.1-1.5-7.8
		c0-3,0.4-6,1-9c0.3-1.4-0.5-2.5-1.8-2.8c-1.2-0.2-2.4,0.5-2.6,1.8c-0.3,1.7-0.6,3.4-0.8,5.1c-0.5,3.7-0.5,7.3,0.4,10.9
		c0.8,3.6,2.5,6.7,5.7,8.6c0.5,0.3,0.6,0.6,0.6,1.1c0,11.3,0,22.7,0,34.1H26.8V10.2h36.5V75.4z"/>
	<path id="XMLID_43_" class="st0" d="M44.5,34.6c3.4,0,6.2-2.8,6.1-6.2s-2.8-6.1-6.2-6.1c-3.4,0-6.2,2.8-6.2,6.1
		C38.2,31.9,41,34.6,44.5,34.6z"/>
</g>
<rect class="st1" width="90" height="90"/>
</svg>
