<?xml version="1.0" encoding="utf-8"?>
<!-- Generator: Adobe Illustrator 23.0.3, SVG Export Plug-In . SVG Version: 6.00 Build 0)  -->
<svg version="1.1" id="Capa_1" xmlns="http://www.w3.org/2000/svg" xmlns:xlink="http://www.w3.org/1999/xlink" x="0px" y="0px"
	 viewBox="0 0 90 90" style="enable-background:new 0 0 90 90;" xml:space="preserve">
<style type="text/css">
	.st0{fill:#C5CF38;}
	.st1{fill:none;}
</style>
<g>
	<path class="st0" d="M32.6,40.7v4.3c-0.1,0-0.1,0-0.2,0c-1,0-2.1,0-3.1,0v-4.3c0.4,0,1,0,1.4,0C31.3,40.7,31.9,40.7,32.6,40.7z"/>
	<g>
		<path class="st0" d="M80.4,19.5c-0.1,0.8-0.4,1.4-1.3,1.5c-1,0.1-1.5-0.4-1.6-1.4c-0.4-4-1.9-7.4-4.5-10.4
			c-3.3-3.7-7.4-5.8-12.4-6.3c-1.3-0.1-1.8-0.7-1.7-1.6c0.1-1,0.7-1.3,2-1.3c9.9,1,17.3,7.7,19.2,17.4
			C80.2,18.2,80.2,18.8,80.4,19.5z"/>
		<path class="st0" d="M60.3,7.7c6.1,0.3,11.8,5.9,12.4,11.7c0.1,0.9-0.3,1.5-1.2,1.6c-0.8,0.2-1.5-0.4-1.7-1.3
			c-0.4-2.5-1.6-4.8-3.6-6.5c-1.7-1.5-3.7-2.3-5.9-2.5c-0.9-0.1-1.5-0.6-1.3-1.6C59,8,59.6,7.7,60.3,7.7z"/>
	</g>
	<g>
		<g>
			<rect x="36" y="22" class="st0" width="13.5" height="3.4"/>
			<path class="st0" d="M69.6,42.6V26.8c0-0.9-0.4-1.7-1-2.4L57.2,12.9c-0.6-0.6-1.5-1-2.4-1H32.6c-1.9,0-3.4,1.5-3.4,3.4v1.6
				c-2.8,0-5,2.2-5,5v18.9c-4.3,0.7-8.2,3-10.9,6.4c-3.2,4.2-4.4,9.5-3.2,14.6c1.6,7.1,7.6,12.4,14.8,13.3h0.2
				c1.1,0.1,2.2,0.2,2.8,2.1c1.9,7.4,8.5,12.5,16.3,12.7c7.6,0.1,14.5-4.9,16.7-12c0.6-2.1,1.6-2.6,3.5-2.8
				c8.1-1,14.4-7.9,14.7-16.2C79.5,51.8,75.7,45.5,69.6,42.6z M56.1,16.7l8.7,8.7h-7c-0.9,0-1.6-0.7-1.6-1.6
				C56.1,23.7,56.1,16.7,56.1,16.7z M32.6,15.3h20.2v8.4c0,2.8,2.2,5,5,5h8.4v12.6v4.5v9.8H32.6V15.3z M67.4,69.9
				C63.2,71.7,59,71.5,55,69c-1.2-0.7-2.5-0.5-3.1,0.5c-0.3,0.5-0.4,1-0.3,1.6c0.1,0.6,0.6,1.1,1.2,1.5c1,0.6,1.9,1.1,3,1.5
				c1.3,0.4,1.4,1.2,1.1,2.3c-1.6,5.5-6.7,9.2-12.4,9.2h-0.1c-5.8-0.1-11-4-12.5-9.7c-0.6-2.2-0.5-4.4,0-7c0.3-1.2-0.3-2.3-1.4-2.5
				c-1.3-0.3-2.3,0.3-2.7,1.6c-0.2,0.6-0.4,1.2-0.4,1.8c-0.1,1.1-0.9,1.2-1.5,1.2c-6.5-0.5-11.8-6.1-11.9-12.7
				c-0.1-6.1,4.4-11.7,10.3-12.9v13.6c0,2.8,2.2,5,5,5h21.9v-3.4H29.2c-0.9,0-1.6-0.7-1.6-1.7V45.1v-4.3V22c0-0.9,0.7-1.6,1.6-1.6
				v35.3c0,1.9,1.5,3.4,3.4,3.4h34.7c1.3,0,2.2-1,2.2-2.2v-9.2c2.5,1.8,4.3,4.6,5.1,8.1C75.9,61.4,72.8,67.4,67.4,69.9z"/>
			<rect x="36" y="47.2" class="st0" width="6.7" height="3.4"/>
			<polygon class="st0" points="36,33.8 51.1,33.8 51.1,32.1 51.1,30.4 36,30.4 			"/>
			<rect x="36" y="38.9" class="st0" width="8.4" height="3.4"/>
		</g>
	</g>
</g>
<rect class="st1" width="90" height="90"/>
</svg>
