<svg xmlns="http://www.w3.org/2000/svg" viewBox="0 0 173.03 108.27"><defs><style>.cls-1{fill:#006580;}.cls-2{fill:#c2d500;}</style></defs><title>Logo Good Vibes fondo blanco</title><g id="Layer_2" data-name="Layer 2"><g id="Layer_3" data-name="Layer 3"><path class="cls-1" d="M28.19,37.46H46.56C44.24,47.78,34.77,52.41,26.27,52.41c-11.5,0-19.53-8.35-19.53-20.32C6.74,18.76,16.28,8.7,29,8.7c7.63,0,13,2.67,16.31,8.17l.27.44,5.31-3.53-.25-.41C46.41,6.37,39,2.67,29.1,2.67,12.51,2.67,0,15.35,0,32.17c0,15.42,10.71,26.2,26,26.2,16,0,26.69-10.06,27.84-26.24l0-.54H29.24Z"/><path class="cls-1" d="M73.74,23.5a18,18,0,0,0-18.1,18.26A16.51,16.51,0,0,0,72.4,58.37c10.28,0,18-7.82,18-18.19A16.51,16.51,0,0,0,73.74,23.5ZM83.93,40.11c0,7.43-4.71,12.62-11.45,12.62-6.09,0-10.34-4.48-10.34-10.9,0-7.31,4.84-12.62,11.52-12.62C79.7,29.21,83.93,33.69,83.93,40.11Z"/><path class="cls-1" d="M111.54,23.5a18,18,0,0,0-18.1,18.26A16.51,16.51,0,0,0,110.2,58.37c10.28,0,18-7.82,18-18.19A16.51,16.51,0,0,0,111.54,23.5Zm10.18,16.61c0,7.43-4.7,12.62-11.44,12.62-6.09,0-10.34-4.48-10.34-10.9,0-7.31,4.84-12.62,11.52-12.62C117.5,29.21,121.72,33.69,121.72,40.11Z"/><path class="cls-1" d="M163.34,52.15c-.21-.25-.23-.79-.07-1.66L172.17,0h-6.36l-5.57,31.17a13.28,13.28,0,0,0-12.16-7.67c-9.65,0-16.92,8.05-16.92,18.73,0,9.5,5.86,16.14,14.25,16.14a14.53,14.53,0,0,0,11.52-5.78A5,5,0,0,0,158,56.12c1,1.09,2.58,1.62,4.92,1.62h4l.87-5.33h-3.57A1.2,1.2,0,0,1,163.34,52.15Zm-4.76-12.21h0c0,7.4-4.94,12.78-11.76,12.78-5.57,0-9.16-4.09-9.16-10.42,0-7.84,4.56-13.1,11.36-13.1a9,9,0,0,1,6.62,2.64A11.12,11.12,0,0,1,158.58,39.94Z"/><path class="cls-2" d="M38.89,101.83c.53-1,9.9-14.32,26.52-35,11.76-14.59,21.84-23.34,26.7-24,1.33-.17,2.57.89,2,1.77-3.19-.18-15.74,12.56-26.88,26.17-12.91,16.09-25.29,32.45-26.7,36.07-1.24,3.54-10.61-.44-9.46-3.27,4.33-9.46,11.94-53,9.37-55.34.8-2.13,6.37-2.3,7,.62C48.88,55.86,39.07,100.68,38.89,101.83Z"/><path class="cls-2" d="M83.71,73.63c-.53,2-2.12,3.71-5,9.37-5,9.55-6.28,16.27-2.83,15.65,4.68-.88,15.56-15.12,17.86-18.83a1.22,1.22,0,0,1,1.94,1.06C93.79,86,84.5,97.77,80.26,100.33a8.17,8.17,0,0,1-10.43-1.15c-2-2.21-2.21-7,1.76-15.21C75,76.81,78.14,73.36,78.4,71,79.46,69.56,84.24,71.24,83.71,73.63Zm-.18-15.12c2.12-1.5,5.39-1.77,7.16-.26,1.24,1,.44,2.83-.79,3.8a8.74,8.74,0,0,1-6,1.32C81.76,63.11,81.32,60.1,83.53,58.51Z"/><path class="cls-2" d="M86.44,96.44A248,248,0,0,1,99.18,67.62c4.95-9.37,9.54-17.51,10-19,.35-1.86,5.21-.35,5.12,1.06,0,1.24-6.27,12.55-9.63,19-5.84,10.87-9.91,19.54-10.35,20.6.8-1.24,9.91-15.47,17.51-19.36,4.51-2.3,9.19,1.85,9.55,4.77.17,5.57-6.81,18.57-14.5,24.23a32.71,32.71,0,0,0,4.15-1.6c5-2.21,14.59-13,17.51-17.41,1.06-.53,2.12.09,1.85,1.24-2.21,4.15-10.43,14.67-17.06,18S98.2,103.42,91.48,99l-.44.8C89.36,103.34,85.56,98.74,86.44,96.44Zm6.28.35a5.53,5.53,0,0,0,6.1,1.68c7.61-2.12,20.78-25.81,14.85-26C108.64,72.39,97.32,89.37,92.72,96.79Z"/><path class="cls-2" d="M130.12,88.75a16.86,16.86,0,0,0-1.07,4.68c-.08,2.48,1.07,5.22,4,5.57,8.31,1,18.92-14.41,22.81-19.27,1-1.06,2.21-.71,2.3.35-2.83,5.66-10.7,17.07-18.21,21-5.22,2.74-14,.26-16.09-5.66-3.27-9.2,7-24.14,14.41-27.68,6.1-2.91,12.91,3.28,12.29,7.17C149.83,79.46,137.28,85.83,130.12,88.75Zm1.5-3.63c7.95-4.33,17.41-12.29,13.53-14.41C142.85,69.56,135.6,77.25,131.62,85.12Z"/><path class="cls-2" d="M164.41,77c.36,3,2.21,6.1,3.36,9.11l.8,2.82a8.44,8.44,0,0,1,0,2.13c-1.24,7.34-9,10.61-15.65,10.61-6.81,0-9.28-2-10.17-4.42a3.62,3.62,0,0,1,.8-3.72,9.54,9.54,0,0,1,2.92-1.68c3.27-4.24,9.1-12.38,12.82-17.5a7,7,0,0,1,.53-2.66c.79-2.47,4.33-5.56,8-7.16,2.65-1.23,6.9,1.86,4.42,2.48C168.3,68,164.06,72.75,164.41,77Zm-.88,13c-8,1.85-15.38,5.39-16.89,7.6.62.62,1.77,1,4.6.71C155.4,97.85,162.73,94.41,163.53,90Zm-3.89-11.41c-2.39,3.54-5.3,7.78-8,11.41,3.72-1.15,8-2.3,11.23-3H163C162.11,84.86,160.43,81.85,159.64,78.58Z"/></g></g></svg>